<svg width="628" height="836" viewBox="0 0 628 836" fill="none" xmlns="http://www.w3.org/2000/svg"><mask id="a" mask-type="alpha" maskUnits="userSpaceOnUse" x="0" y="0" width="628" height="836"><path fill="#332E54" d="M0 0h628v836H0z"/></mask><g mask="url(#a)"><path d="M1034.79 279.149v38.132c-1.11-1.154-2.31-2.244-3.34-3.486-27.34-33.208-54.341-66.699-82.102-99.58-29.307-34.733-60.38-67.81-96.181-96.05-29.634-23.38-62.123-40.835-99.928-46.936-24.928-4.031-49.921-3.966-74.936-1.416-83.608 8.541-154.404 42.752-209.489 106.901-37.892 44.147-62.188 94.547-64.128 153.729-1.372 41.684 10.547 78.313 45.128 104.591 25.69 19.524 53.123 22.4 82.082 6.973 23.25-12.377 42.055-30.266 60.969-48.047 17.846-16.8 35.256-34.057 53.363-50.552 28.61-26.039 59.378-49.137 95.549-63.801 50.596-20.505 101.781-24.078 153.184-2.746 24.84 10.307 47.306 24.775 68.006 41.75 22.596 18.521 44.453 37.936 66.653 56.937 1.64 1.394 3.45 2.571 5.17 3.857V694.27c-1.05-.284-2.07-.676-3.14-.872-44.627-7.518-89.449-9.893-134.554-5.273-45.127 4.641-89.186 14.773-132.962 26.104-56.066 14.512-111.914 29.874-167.957 44.473-30.07 7.845-60.555 14.077-91.627 15.951-46.565 2.811-92.912-.589-138.955-7.692-54.583-8.411-107.032-23.664-155.82-50.139-53.821-29.198-97.51-69.183-128.626-122.285-38.132-65.087-51.642-136.166-50.335-210.666.872-48.678 8.193-96.507 21.31-143.399 27.63-98.861 73.237-188.07 142.703-264.4.828-.915 1.439-2.048 2.136-3.072h164.514c-3.421 3.486-6.864 6.973-10.285 10.481-14.643 15.035-27.455 31.421-37.043 50.182-5.099 10.002-8.324 20.483-8.258 31.814.065 11.44 5.709 19.632 16.843 22.4 6.407 1.59 13.292 2.266 19.873 1.917 16.582-.85 31.813-7.06 46.718-13.793 20.504-9.282 40.834-18.935 61.273-28.37C508.581 20.872 568.917 4.05 633.307 3.114c58.244-.828 112.523 12.834 163.076 41.64 37.152 21.158 70.098 47.83 100.778 77.398 48.766 46.979 91.453 99.254 133.199 152.377 1.33 1.678 2.97 3.095 4.43 4.62z" fill="#302F4F"/><path d="M196.963-27c-.719 1.024-1.307 2.157-2.135 3.072-69.466 76.33-115.073 165.56-142.724 264.443-13.096 46.892-20.44 94.7-21.31 143.4-1.33 74.5 12.201 145.557 50.334 210.665 31.116 53.103 74.805 93.087 128.626 122.286 48.788 26.475 101.236 41.728 155.82 50.138 46.042 7.082 92.39 10.481 138.955 7.692 31.072-1.874 61.556-8.106 91.627-15.95 56.043-14.621 111.891-29.961 167.956-44.473 43.777-11.331 87.836-21.485 132.963-26.105 45.105-4.641 89.927-2.244 134.555 5.273 1.07.175 2.09.567 3.14.872V849H-11c.022-292.029.022-584.015.022-876h207.941z" fill="#B8AFD4"/><path d="M1034.79 379.383c-1.72-1.286-3.53-2.462-5.17-3.857-22.2-19.001-44.056-38.416-66.653-56.937-20.7-16.953-43.165-31.443-68.006-41.75-51.424-21.31-102.587-17.759-153.183 2.746-36.15 14.664-66.939 37.74-95.549 63.801-18.108 16.495-35.518 33.774-53.364 50.552-18.914 17.781-37.718 35.671-60.968 48.047-28.981 15.428-56.393 12.551-82.083-6.972-34.581-26.279-46.5-62.908-45.127-104.592 1.961-59.182 26.235-109.582 64.128-153.728 55.085-64.15 125.88-98.36 209.488-106.902 24.993-2.55 50.008-2.615 74.936 1.416 37.806 6.102 70.294 23.555 99.929 46.936 35.801 28.24 66.873 61.339 96.181 96.05 27.738 32.881 54.761 66.372 82.101 99.58 1.03 1.242 2.23 2.332 3.34 3.487v62.123z" fill="#B8AFD4"/><path d="M1034.79 279.149c-1.49-1.525-3.12-2.942-4.43-4.598-41.724-53.124-84.433-105.398-133.199-152.377-30.702-29.569-63.626-56.24-100.778-77.398C745.83 15.97 691.551 2.307 633.307 3.136c-64.39.915-124.704 17.758-182.709 44.516-20.439 9.435-40.769 19.088-61.273 28.37-14.905 6.756-30.136 12.966-46.718 13.794-6.603.327-13.466-.349-19.873-1.918-11.134-2.745-16.8-10.938-16.843-22.4-.066-11.33 3.159-21.811 8.258-31.813 9.588-18.761 22.422-35.147 37.043-50.182 3.421-3.508 6.864-6.995 10.285-10.481h673.313v184.125c-8.5-8.89-16.96-17.824-25.54-26.627-22.445-23.032-45.52-45.324-73.673-61.513-12.682-7.3-26.017-12.9-40.638-14.774-6.908-.893-8.782 1.765-6.123 8.171a28.374 28.374 0 0 0 2.876 5.23c4.445 6.406 8.694 12.965 13.532 19.066 42.338 53.691 84.784 107.272 127.206 160.897.66.828 1.57 1.438 2.36 2.157v29.395z" fill="#B8AFD4"/></g></svg>